<svg height="572pt" viewBox="-180 -18 572 572.00055" width="572pt" xmlns="http://www.w3.org/2000/svg"><path d="m143.589844 536.25h-96.699219c-3.488281 0-6.632813-2.128906-7.921875-5.375-.632812-1.578125-62.886719-160.046875-47.308594-315.503906.3125-3.058594 2.234375-5.714844 5.046875-6.957032 2.800781-1.242187 6.074219-.871093 8.539063.96875l186.492187 139c2.476563 1.855469 3.773438 4.910157 3.355469 7.988282-13.203125 97.484375-43.277344 173.75-43.585938 174.503906-1.285156 3.246094-4.425781 5.375-7.917968 5.375zm-90.800782-17.058594h84.902344c6.753906-18.363281 28.648438-81.765625 39.804688-160.140625l-170.128906-126.8125c-8.832032 130.441407 35.304687 259.410157 45.421874 286.953125zm0 0"/><path d="m192.617188 261.628906c-1.816407 0-3.625-.578125-5.132813-1.714844l-172.136719-129.648437c-2.984375-2.25-4.160156-6.175781-2.902344-9.695313 16.753907-46.699218 42.660157-86.503906 77-118.300781 3.28125-3.027343 8.3125-3.027343 11.597657 0 63.597656 58.898438 97.277343 143.214844 100.105469 250.601563.082031 3.277344-1.71875 6.308594-4.628907 7.8125-1.230469.632812-2.570312.945312-3.902343.945312zm-161.933594-141.175781 152.625 114.953125c-5.570313-90.820312-35.144532-163.078125-88.070313-215.089844-28.035156 27.589844-49.722656 61.214844-64.554687 100.136719zm0 0"/><path d="m.160156 224.753906c-.28125 0-.574218-.015625-.859375-.046875-4.6875-.46875-8.105469-4.648437-7.636719-9.339843 3.417969-33.976563 10.414063-65.871094 20.78125-94.796876 1.59375-4.441406 6.460938-6.746093 10.914063-5.152343 4.433594 1.589843 6.742187 6.476562 5.152344 10.910156-9.910157 27.625-16.597657 58.15625-19.871094 90.746094-.441406 4.398437-4.148437 7.679687-8.480469 7.679687zm0 0"/><path d="m186.652344 363.242188c-.386719 0-.765625-.023438-1.15625-.078126-4.667969-.632812-7.941406-4.929687-7.308594-9.601562 4.738281-34.863281 6.730469-68.589844 5.894531-100.242188-.117187-4.710937 3.605469-8.628906 8.308594-8.75 4.382813-.238281 8.628906 3.589844 8.757813 8.304688.84375 32.566406-1.195313 67.21875-6.054688 102.988281-.578125 4.273438-4.238281 7.378907-8.441406 7.378907zm0 0"/><path d="m95.242188 536.25c-4.714844 0-8.53125-3.820312-8.53125-8.53125v-503.285156c0-4.710938 3.816406-8.527344 8.53125-8.527344 4.71875 0 8.527343 3.816406 8.527343 8.527344v503.285156c0 4.710938-3.816406 8.53125-8.527343 8.53125zm0 0"/></svg>